# xmcd
#
# Track frame offsets: 
#        187
#        17752
#        38725
#        60732
#        75312
#        95035
#        133222
#        153610
#
# Disc length: 2542 seconds
#
# Revision: 7
# Processed by: cddbd v1.5.2PL0 Copyright (c) Steve Scherf et al.
# Submitted via: ExactAudioCopy v1.3
#
DISCID=6209ec08
DTITLE=RAINBOW - The Best Of Rainbow [CD1]
DYEAR=1981
DGENRE=Hard Rock
TTITLE0=All Night Long
TTITLE1=Man On The Silver Mountain
TTITLE2=Lost In Hollywood
TTITLE3=Jealous Lover
TTITLE4=Long Live Rock 'N' Roll
TTITLE5=Stargazer
TTITLE6=Kill The King
TTITLE7=A Light In The Black
EXTD=Ritchie Blackmore:\t\tg, b(5]\nCozy Powell:\t\tdr(1,3,5-8]\nGary 
EXTD=Driscoll:\t\tdr(2]\nBob Rondinelli:\t\tdr(4]\nRoger Glover:\t\tb(
EXTD=1,3,4]\nCraig Gruber:\t\tb(2]\nJimmy Bain:\t\tb(6,8]\nBob Daisley
EXTD=:\t\tb(7]\nDon Airey:\t\tkb(1,3,4]\nMickey Lee Soule:EXTD=t\tkb(2
EXTD=]\nDavid Stone:\t\tkb(5,7,8]\nTony Carey:\t\tkb(6]\nGraham Bonnet
EXTD=:\t\tvoc(1,3]\nRonnie James Dio:\t\tvoc(2,5-8]\nJoe Lynn Turner:\t
EXTD=\tvoc(4) YEAR: 1981
EXTT0=Blackmore and Glover\n1979
EXTT1=Blackmore and Dio\n1975
EXTT2=Blackmore and Glover and Powell\n1979
EXTT3=Blackmore and Turner\n1981
EXTT4=Blackmore and Dio\n1978
EXTT5=Blackmore and Dio\n1976\n\nMunich Philharmonic Orchestra\nKonzertm
EXTT5=eister:\t \tFritz Sonneleitner\nConducted and Scored:\tRainer Re
EXTT5=itsch
EXTT6=Blackmore and Dio and Powell\n1977
EXTT7=Blackmore and Dio\n1976
PLAYORDER=
